<svg width="317" height="145" viewBox="0 0 317 145" fill="none" xmlns="http://www.w3.org/2000/svg">
<path d="M1.13086 22.3079V9.5338H10.1251V11.7505H3.76422V14.6247H9.66146V16.8225H3.76422V20.0912H10.1251V22.3079H1.13086ZM11.7223 22.3079V12.7837H14.1702V14.8313H13.9662C14.2011 14.1174 14.5844 13.5602 15.1159 13.1594C15.6475 12.7586 16.2905 12.5583 17.0446 12.5583C17.6257 12.5583 18.1635 12.6898 18.658 12.9528C19.1525 13.2032 19.5482 13.5915 19.8449 14.1174C20.1416 14.6434 20.2899 15.3009 20.2899 16.0899L19.7336 14.8313C19.9809 14.13 20.3827 13.579 20.939 13.1782C21.5077 12.7649 22.1815 12.5583 22.9604 12.5583C23.5538 12.5583 24.0978 12.6898 24.5923 12.9528C25.0992 13.2032 25.501 13.5915 25.7977 14.1174C26.1068 14.6434 26.2614 15.3009 26.2614 16.0899V22.3079H23.6836V16.5032C23.6836 15.9146 23.5353 15.4575 23.2386 15.1319C22.9542 14.8062 22.5772 14.6434 22.1073 14.6434C21.5262 14.6434 21.075 14.8501 20.7536 15.2634C20.4445 15.6641 20.2899 16.2214 20.2899 16.9353V22.3079H17.6937V16.5032C17.6937 15.9146 17.5515 15.4575 17.2671 15.1319C16.9828 14.8062 16.6057 14.6434 16.1359 14.6434C15.5548 14.6434 15.1036 14.8501 14.7821 15.2634C14.4607 15.6641 14.3 16.2214 14.3 16.9353V22.3079H11.7223ZM37.8648 17.837C37.8648 18.8389 37.6731 19.6904 37.2899 20.3918C36.919 21.0806 36.4183 21.6128 35.7878 21.9885C35.1696 22.3517 34.4772 22.5333 33.7108 22.5333C33.0926 22.5333 32.53 22.4143 32.0232 22.1764C31.5286 21.9385 31.1268 21.594 30.8178 21.1432C30.5086 20.6923 30.3294 20.1539 30.28 19.5277L30.7621 19.9785V25.5578H28.1844V12.7837H30.6323V15.0943L30.28 15.5451C30.4036 14.6059 30.7868 13.8732 31.4297 13.3472C32.0726 12.8213 32.8577 12.5583 33.7849 12.5583C34.5514 12.5583 35.2376 12.7398 35.8434 13.103C36.4615 13.4662 36.9499 13.9985 37.3084 14.6998C37.6793 15.3886 37.8648 16.2339 37.8648 17.2358V17.837ZM33.0431 20.4481C33.6983 20.4481 34.23 20.229 34.638 19.7906C35.046 19.3398 35.25 18.6886 35.25 17.837V17.2358C35.25 16.3968 35.046 15.7581 34.638 15.3197C34.23 14.8689 33.6922 14.6434 33.0246 14.6434C32.3817 14.6434 31.8439 14.8689 31.4112 15.3197C30.9785 15.7581 30.7621 16.3842 30.7621 17.1983V17.8933C30.7621 18.4318 30.861 18.8952 31.0588 19.2834C31.269 19.6591 31.5472 19.9472 31.8934 20.1476C32.2395 20.3479 32.6228 20.4481 33.0431 20.4481ZM41.7264 17.7994C41.7264 18.7387 41.9304 19.4149 42.3384 19.8282C42.7588 20.2415 43.2904 20.4481 43.9333 20.4481C44.5761 20.4481 45.1016 20.2415 45.5096 19.8282C45.9176 19.4149 46.1216 18.7637 46.1216 17.8745V17.3485C46.1216 16.4218 45.9114 15.7393 45.491 15.3009C45.0831 14.8626 44.5638 14.6434 43.9333 14.6434C43.2904 14.6434 42.7588 14.8626 42.3384 15.3009C41.9304 15.7267 41.7264 16.3842 41.7264 17.2734V17.7994ZM48.7364 17.7994C48.7364 18.8138 48.5324 19.6779 48.1243 20.3918C47.7164 21.0931 47.1477 21.6253 46.4183 21.9885C45.7012 22.3517 44.8729 22.5333 43.9333 22.5333C42.9813 22.5333 42.1468 22.3517 41.4297 21.9885C40.7126 21.6253 40.1439 21.0993 39.7236 20.4106C39.3156 19.7092 39.1116 18.8639 39.1116 17.8745V17.3485C39.1116 16.3341 39.3156 15.47 39.7236 14.7562C40.1439 14.0423 40.7126 13.4975 41.4297 13.1218C42.1591 12.7461 42.9936 12.5583 43.9333 12.5583C44.8729 12.5583 45.7012 12.7461 46.4183 13.1218C47.1477 13.4975 47.7164 14.036 48.1243 14.7374C48.5324 15.4387 48.7364 16.2841 48.7364 17.2734V17.7994ZM58.7176 12.7837L60.9059 21.9322H60.6092L62.5008 12.7837H65.0414L62.8717 22.3079H58.8475L56.8074 13.9108H57.6419L55.6206 22.3079H51.5963L49.4266 12.7837H52.06L53.9515 21.9322H53.6548L55.8616 12.7837H58.7176ZM65.7334 17.3673C65.7334 16.3529 65.9374 15.4888 66.3454 14.7749C66.7533 14.0611 67.3161 13.5163 68.0329 13.1406C68.7625 12.7524 69.5785 12.5583 70.4808 12.5583C71.3837 12.5583 72.1748 12.7398 72.8546 13.103C73.5471 13.4662 74.0849 14.0047 74.468 14.7186C74.8638 15.4324 75.0614 16.3153 75.0614 17.3673V18.1H67.3282V16.4281H72.7989L72.5022 16.6535C72.5022 15.9271 72.311 15.3824 71.9273 15.0191C71.5443 14.6434 71.0372 14.4556 70.4067 14.4556C69.7761 14.4556 69.2633 14.6497 68.8674 15.0379C68.4844 15.4261 68.2926 15.9709 68.2926 16.6723V18.1C68.2926 18.914 68.5029 19.5402 68.9231 19.9785C69.3438 20.4043 69.8816 20.6172 70.5365 20.6172C71.0557 20.6172 71.4765 20.5045 71.7975 20.2791C72.1313 20.0536 72.3539 19.7594 72.4651 19.3962H74.8945C74.734 20.373 74.2703 21.1432 73.5036 21.7068C72.7375 22.2578 71.7483 22.5333 70.5365 22.5333C69.56 22.5333 68.7069 22.3517 67.9773 21.9885C67.2604 21.6128 66.7041 21.0743 66.3083 20.373C65.9252 19.6591 65.7334 18.8075 65.7334 17.8182V17.3673ZM76.5207 22.3079V12.7837H78.9686V15.2258H78.7646C78.9373 14.4243 79.2404 13.7981 79.6733 13.3472C80.1056 12.8964 80.7796 12.671 81.6946 12.671H82.3252V14.944H81.5648C80.6869 14.944 80.0563 15.1506 79.6733 15.5639C79.2896 15.9647 79.0984 16.5721 79.0984 17.3861V22.3079H76.5207ZM83.4929 22.3079V12.7837H86.0706V22.3079H83.4929ZM83.4002 11.4311V9.00781H86.1819V11.4311H83.4002ZM88.0746 22.3079V12.7837H90.5225V14.7937H90.3186C90.5782 14.1049 90.974 13.5602 91.5054 13.1594C92.0496 12.7586 92.7045 12.5583 93.4712 12.5583C94.0895 12.5583 94.6517 12.696 95.1587 12.9715C95.6658 13.2345 96.0674 13.6353 96.3642 14.1738C96.673 14.6998 96.8278 15.3698 96.8278 16.1838V22.3079H94.2501V16.5783C94.2501 15.9647 94.0895 15.4888 93.7679 15.1506C93.459 14.8125 93.051 14.6434 92.5439 14.6434C91.9505 14.6434 91.4869 14.8564 91.1531 15.2821C90.8193 15.6954 90.6524 16.259 90.6524 16.9728V22.3079H88.0746ZM102.895 25.6893C100.114 25.6893 98.6237 24.7187 98.4261 22.7775H101.041C101.102 23.1157 101.282 23.3787 101.579 23.5665C101.888 23.7669 102.345 23.8671 102.951 23.8671H103.303C104.032 23.8671 104.558 23.7105 104.88 23.3974C105.213 23.0969 105.38 22.6272 105.38 21.9885V19.6779L105.825 19.0956C105.714 19.9722 105.355 20.6611 104.75 21.162C104.156 21.6504 103.371 21.8946 102.395 21.8946C101.628 21.8946 100.93 21.7255 100.299 21.3874C99.6808 21.0493 99.1864 20.5546 98.8155 19.9034C98.4568 19.2522 98.2777 18.4569 98.2777 17.5176V17.0855C98.2777 16.1087 98.4632 15.2884 98.8341 14.6247C99.2172 13.9484 99.7242 13.4349 100.355 13.0842C100.985 12.7336 101.684 12.5583 102.45 12.5583C103.39 12.5583 104.175 12.815 104.806 13.3285C105.436 13.8294 105.788 14.5244 105.863 15.4136L105.492 14.9252V12.7837H107.958V21.951C107.958 23.2534 107.55 24.1989 106.734 24.7876C105.93 25.3887 104.768 25.6893 103.248 25.6893H102.895ZM103.118 20.0349C103.773 20.0349 104.311 19.8219 104.731 19.3962C105.164 18.9578 105.38 18.3505 105.38 17.574V17.0292C105.38 16.5157 105.275 16.0774 105.065 15.7142C104.867 15.351 104.595 15.0755 104.249 14.8877C103.915 14.6873 103.532 14.5871 103.099 14.5871C102.456 14.5871 101.925 14.8 101.505 15.2258C101.097 15.6516 100.893 16.2715 100.893 17.0855V17.5176C100.893 18.3317 101.102 18.9578 101.523 19.3962C101.943 19.8219 102.475 20.0349 103.118 20.0349ZM114.12 22.3079V9.5338H123.114V11.7505H116.754V14.6247H122.651V16.8225H116.754V20.0912H123.114V22.3079H114.12ZM126.494 22.3079L123.694 12.7837H126.383L128.905 21.9322H128.608L131.13 12.7837H133.764L130.964 22.3079H126.494ZM134.244 17.3673C134.244 16.3529 134.448 15.4888 134.856 14.7749C135.264 14.0611 135.827 13.5163 136.544 13.1406C137.273 12.7524 138.089 12.5583 138.992 12.5583C139.894 12.5583 140.686 12.7398 141.365 13.103C142.058 13.4662 142.596 14.0047 142.979 14.7186C143.375 15.4324 143.572 16.3153 143.572 17.3673V18.1H135.839V16.4281H141.31L141.013 16.6535C141.013 15.9271 140.821 15.3824 140.438 15.0191C140.055 14.6434 139.548 14.4556 138.917 14.4556C138.287 14.4556 137.774 14.6497 137.378 15.0379C136.995 15.4261 136.803 15.9709 136.803 16.6723V18.1C136.803 18.914 137.014 19.5402 137.434 19.9785C137.854 20.4043 138.392 20.6172 139.047 20.6172C139.567 20.6172 139.987 20.5045 140.308 20.2791C140.642 20.0536 140.865 19.7594 140.976 19.3962H143.405C143.245 20.373 142.781 21.1432 142.014 21.7068C141.248 22.2578 140.259 22.5333 139.047 22.5333C138.071 22.5333 137.218 22.3517 136.488 21.9885C135.771 21.6128 135.215 21.0743 134.819 20.373C134.436 19.6591 134.244 18.8075 134.244 17.8182V17.3673ZM145.031 22.3079V12.7837H147.479V15.2258H147.275C147.448 14.4243 147.751 13.7981 148.184 13.3472C148.616 12.8964 149.29 12.671 150.205 12.671H150.835V14.944H150.075C149.198 14.944 148.567 15.1506 148.184 15.5639C147.8 15.9647 147.609 16.5721 147.609 17.3861V22.3079H145.031ZM155.238 25.5578L156.443 21.7443L156.462 21.7068L159.003 12.7837H161.636L157.779 25.5578H155.238ZM154.311 22.1388L151.548 12.7837H154.237L156.851 22.1388H154.311ZM166.893 22.3079V9.5338H169.526V22.3079H166.893ZM171.617 22.3079V12.7837H174.065V14.7937H173.861C174.12 14.1049 174.516 13.5602 175.047 13.1594C175.592 12.7586 176.247 12.5583 177.013 12.5583C177.631 12.5583 178.194 12.696 178.701 12.9715C179.208 13.2345 179.609 13.6353 179.906 14.1738C180.216 14.6998 180.37 15.3698 180.37 16.1838V22.3079H177.792V16.5783C177.792 15.9647 177.631 15.4888 177.31 15.1506C177.001 14.8125 176.593 14.6434 176.086 14.6434C175.492 14.6434 175.029 14.8564 174.695 15.2821C174.361 15.6954 174.194 16.259 174.194 16.9728V22.3079H171.617ZM181.874 17.2358C181.874 16.2465 182.06 15.4074 182.431 14.7186C182.814 14.0172 183.321 13.485 183.951 13.1218C184.582 12.7461 185.274 12.5583 186.028 12.5583C186.659 12.5583 187.221 12.6773 187.716 12.9152C188.21 13.1531 188.612 13.4975 188.921 13.9484C189.23 14.3867 189.409 14.9189 189.459 15.5451L188.977 15.0943V9.28959H191.555V22.3079H189.088V19.9785L189.459 19.5277C189.348 20.4794 188.964 21.2183 188.309 21.7443C187.666 22.2703 186.881 22.5333 185.954 22.5333C185.187 22.5333 184.495 22.3517 183.877 21.9885C183.271 21.6253 182.783 21.0931 182.412 20.3918C182.053 19.6904 181.874 18.8389 181.874 17.837V17.2358ZM186.677 14.6434C186.034 14.6434 185.509 14.8689 185.101 15.3197C184.693 15.7581 184.489 16.3968 184.489 17.2358V17.837C184.489 18.6886 184.693 19.3398 185.101 19.7906C185.521 20.229 186.053 20.4481 186.696 20.4481C187.351 20.4481 187.895 20.229 188.328 19.7906C188.76 19.3398 188.977 18.7074 188.977 17.8933V17.1983C188.977 16.6472 188.871 16.1838 188.662 15.8081C188.463 15.4324 188.192 15.1444 187.846 14.944C187.499 14.7436 187.11 14.6434 186.677 14.6434ZM202.153 12.7837V22.3079H199.705V20.3166H199.909C199.674 21.0054 199.291 21.5502 198.759 21.951C198.24 22.3392 197.585 22.5333 196.793 22.5333C196.175 22.5333 195.613 22.4143 195.106 22.1764C194.612 21.9259 194.216 21.5377 193.919 21.0117C193.622 20.4857 193.474 19.8032 193.474 18.9641V12.7837H196.052V18.532C196.052 19.1958 196.206 19.6842 196.515 19.9973C196.824 20.2979 197.232 20.4481 197.739 20.4481C198.308 20.4481 198.753 20.254 199.074 19.8658C199.408 19.4776 199.575 18.9015 199.575 18.1375V12.7837H202.153ZM207.833 22.5333C206.869 22.5333 206.083 22.383 205.477 22.0825C204.884 21.7694 204.445 21.3686 204.161 20.8802C203.889 20.3918 203.734 19.8783 203.697 19.3398H206.219C206.257 19.728 206.411 20.0599 206.683 20.3354C206.967 20.6109 207.4 20.7487 207.981 20.7487C208.438 20.7487 208.797 20.6485 209.057 20.4481C209.329 20.2478 209.465 19.991 209.465 19.6779C209.465 19.3523 209.359 19.1207 209.15 18.9829C208.939 18.8326 208.68 18.7262 208.371 18.6635L206.349 18.2502C205.657 18.1125 205.07 17.8495 204.587 17.4613C204.118 17.0605 203.883 16.4719 203.883 15.6954C203.883 15.0567 204.055 14.5057 204.402 14.0423C204.748 13.5664 205.23 13.2032 205.849 12.9528C206.466 12.6898 207.184 12.5583 208 12.5583C208.951 12.5583 209.712 12.7085 210.281 13.0091C210.861 13.3097 211.288 13.6917 211.56 14.155C211.832 14.6184 211.98 15.1006 212.005 15.6015H209.52C209.495 15.2509 209.347 14.9565 209.075 14.7186C208.816 14.4681 208.414 14.3429 207.87 14.3429C207.425 14.3429 207.072 14.4431 206.813 14.6434C206.553 14.8313 206.423 15.0692 206.423 15.3573C206.423 15.6579 206.528 15.8708 206.739 15.996C206.961 16.1212 207.221 16.2151 207.518 16.2778L209.557 16.6911C210.262 16.8288 210.849 17.1106 211.319 17.5364C211.789 17.9497 212.024 18.5508 212.024 19.3398C212.024 20.0036 211.844 20.5734 211.486 21.0493C211.14 21.5252 210.652 21.8946 210.021 22.1576C209.403 22.4081 208.673 22.5333 207.833 22.5333ZM217.454 22.3079C216.663 22.3079 216.057 22.2077 215.637 22.0073C215.217 21.807 214.92 21.5189 214.747 21.1432C214.586 20.7675 214.505 20.3104 214.505 19.7719V10.4919L217.083 10.0598V19.3022C217.083 19.7406 217.152 20.0286 217.287 20.1664C217.436 20.3041 217.739 20.373 218.196 20.373H219.179V22.3079H217.454ZM212.781 14.7186V12.7837H219.29V14.7186H212.781ZM220.768 22.3079V12.7837H223.216V15.2258H223.012C223.184 14.4243 223.488 13.7981 223.92 13.3472C224.353 12.8964 225.027 12.671 225.942 12.671H226.572V14.944H225.812C224.934 14.944 224.303 15.1506 223.92 15.5639C223.537 15.9647 223.346 16.5721 223.346 17.3861V22.3079H220.768ZM230.974 25.5578L232.18 21.7443L232.198 21.7068L234.739 12.7837H237.372L233.515 25.5578H230.974ZM230.047 22.1388L227.284 12.7837H229.973L232.588 22.1388H230.047ZM250.975 12.7837L253.163 21.9322H252.867L254.758 12.7837H257.299L255.129 22.3079H251.105L249.065 13.9108H249.899L247.878 22.3079H243.854L241.684 12.7837H244.317L246.209 21.9322H245.912L248.119 12.7837H250.975ZM258.491 22.3079V12.7837H261.069V22.3079H258.491ZM258.399 11.4311V9.00781H261.18V11.4311H258.399ZM266.968 22.3079C266.176 22.3079 265.57 22.2077 265.15 22.0073C264.729 21.807 264.433 21.5189 264.26 21.1432C264.099 20.7675 264.019 20.3104 264.019 19.7719V10.4919L266.597 10.0598V19.3022C266.597 19.7406 266.664 20.0286 266.801 20.1664C266.949 20.3041 267.251 20.373 267.709 20.373H268.692V22.3079H266.968ZM262.294 14.7186V12.7837H268.803V14.7186H262.294ZM270.281 22.3079V9.28959H272.858V14.7937H272.636C272.871 14.1049 273.248 13.5602 273.767 13.1594C274.286 12.7586 274.93 12.5583 275.696 12.5583C276.302 12.5583 276.858 12.696 277.365 12.9715C277.872 13.2345 278.273 13.6353 278.57 14.1738C278.88 14.6998 279.034 15.3698 279.034 16.1838V22.3079H276.456V16.5783C276.456 15.9647 276.296 15.4888 275.974 15.1506C275.665 14.8125 275.257 14.6434 274.75 14.6434C274.157 14.6434 273.693 14.8564 273.359 15.2821C273.025 15.6954 272.858 16.259 272.858 16.9728V22.3079H270.281ZM2.26209 62.814V37.2658H7.52881V62.814H2.26209ZM11.7095 62.814V43.7655H16.6053V47.7856H16.1973C16.7166 46.408 17.5078 45.3185 18.5711 44.517C19.659 43.7155 20.9696 43.3147 22.5026 43.3147C23.7389 43.3147 24.864 43.5902 25.8777 44.1413C26.8915 44.6672 27.6951 45.4687 28.2885 46.5458C28.9067 47.5978 29.2158 48.9378 29.2158 50.5659V62.814H24.0603V51.3549C24.0603 50.1275 23.7389 49.1757 23.096 48.4995C22.4778 47.8232 21.6619 47.4851 20.6481 47.4851C19.4612 47.4851 18.534 47.9108 17.8664 48.7625C17.1988 49.589 16.865 50.7162 16.865 52.1438V62.814H11.7095ZM40.3974 62.814C38.8149 62.814 37.6034 62.6138 36.7626 62.2128C35.9219 61.8119 35.3285 61.236 34.9823 60.4846C34.6609 59.7332 34.5002 58.8191 34.5002 57.7419V39.1819L39.6556 38.3178V56.8026C39.6556 57.6793 39.7916 58.2554 40.0636 58.5309C40.3603 58.8062 40.9661 58.9442 41.881 58.9442H43.8468V62.814H40.3974ZM31.0509 47.6353V43.7655H44.0693V47.6353H31.0509ZM45.6615 52.9328C45.6615 50.904 46.0695 49.1757 46.8855 47.7481C47.7015 46.3204 48.8265 45.2308 50.2606 44.4794C51.7195 43.7029 53.3514 43.3147 55.1565 43.3147C56.9615 43.3147 58.5438 43.6779 59.9039 44.4042C61.2884 45.1306 62.364 46.2076 63.1307 47.6353C63.9218 49.063 64.3176 50.8289 64.3176 52.9328V54.3981H48.8512V51.0543H59.7927L59.1992 51.5051C59.1992 50.0524 58.8162 48.9628 58.0495 48.2365C57.2829 47.4851 56.2692 47.1094 55.0081 47.1094C53.7471 47.1094 52.7209 47.4976 51.9297 48.274C51.1631 49.0505 50.7799 50.1401 50.7799 51.5427V54.3981C50.7799 56.0261 51.2002 57.2785 52.0409 58.1552C52.8817 59.007 53.9573 59.4326 55.2677 59.4326C56.3062 59.4326 57.147 59.2072 57.7898 58.7563C58.4574 58.3055 58.9025 57.7168 59.1251 56.9905H63.9838C63.6622 58.9442 62.7349 60.4846 61.2021 61.6117C59.6692 62.7136 57.6909 63.2648 55.2677 63.2648C53.3143 63.2648 51.6082 62.9014 50.1494 62.1753C48.7152 61.4238 47.6025 60.3466 46.8113 58.9442C46.0448 57.5165 45.6615 55.8133 45.6615 53.8345V52.9328ZM67.2355 62.814V36.7774H72.391V62.814H67.2355ZM76.3989 62.814V36.7774H81.5544V62.814H76.3989ZM85.563 62.814V43.7655H90.7184V62.814H85.563ZM85.3775 41.0604V36.2138H90.941V41.0604H85.3775ZM102.997 69.5767C97.434 69.5767 94.4546 67.6354 94.0588 63.7532H99.2884C99.4119 64.4295 99.7706 64.9555 100.364 65.3312C100.982 65.7322 101.897 65.9323 103.109 65.9323H103.813C105.272 65.9323 106.323 65.6194 106.966 64.9931C107.634 64.3919 107.967 63.4527 107.967 62.1753V57.554L108.858 56.3894C108.635 58.1427 107.918 59.5201 106.706 60.5221C105.519 61.499 103.95 61.9874 101.996 61.9874C100.463 61.9874 99.0659 61.6493 97.8049 60.973C96.5687 60.2967 95.5795 59.3075 94.8377 58.0049C94.1208 56.7024 93.7621 55.1119 93.7621 53.2334V52.3693C93.7621 50.4156 94.133 48.775 94.8748 47.4475C95.6415 46.0949 96.6551 45.068 97.9161 44.3667C99.1772 43.6653 100.574 43.3147 102.107 43.3147C103.987 43.3147 105.557 43.8282 106.818 44.8551C108.079 45.857 108.783 47.2471 108.932 49.0255L108.19 48.0486V43.7655H113.123V62.1001C113.123 64.7048 112.307 66.5963 110.675 67.7733C109.068 68.9756 106.743 69.5767 103.702 69.5767H102.997ZM103.442 58.2679C104.753 58.2679 105.828 57.8421 106.669 56.9905C107.534 56.1138 107.967 54.899 107.967 53.3461V52.2566C107.967 51.2296 107.757 50.3529 107.337 49.6266C106.941 48.9002 106.397 48.3492 105.705 47.9735C105.037 47.5727 104.271 47.3723 103.405 47.3723C102.119 47.3723 101.057 47.7981 100.216 48.6498C99.3997 49.5014 98.9917 50.7412 98.9917 52.3693V53.2334C98.9917 54.8615 99.4119 56.1138 100.253 56.9905C101.094 57.8421 102.157 58.2679 103.442 58.2679ZM116.146 52.9328C116.146 50.904 116.554 49.1757 117.37 47.7481C118.186 46.3204 119.311 45.2308 120.745 44.4794C122.204 43.7029 123.836 43.3147 125.641 43.3147C127.446 43.3147 129.028 43.6779 130.389 44.4042C131.773 45.1306 132.849 46.2076 133.615 47.6353C134.406 49.063 134.802 50.8289 134.802 52.9328V54.3981H119.336V51.0543H130.277L129.684 51.5051C129.684 50.0524 129.301 48.9628 128.534 48.2365C127.767 47.4851 126.754 47.1094 125.493 47.1094C124.232 47.1094 123.205 47.4976 122.414 48.274C121.648 49.0505 121.265 50.1401 121.265 51.5427V54.3981C121.265 56.0261 121.685 57.2785 122.526 58.1552C123.367 59.007 124.442 59.4326 125.752 59.4326C126.791 59.4326 127.632 59.2072 128.275 58.7563C128.942 58.3055 129.387 57.7168 129.61 56.9905H134.468C134.147 58.9442 133.22 60.4846 131.687 61.6117C130.154 62.7136 128.175 63.2648 125.752 63.2648C123.799 63.2648 122.093 62.9014 120.634 62.1753C119.2 61.4238 118.087 60.3466 117.296 58.9442C116.529 57.5165 116.146 55.8133 116.146 53.8345V52.9328ZM137.72 62.814V43.7655H142.616V47.7856H142.208C142.727 46.408 143.518 45.3185 144.582 44.517C145.67 43.7155 146.98 43.3147 148.513 43.3147C149.749 43.3147 150.874 43.5902 151.888 44.1413C152.902 44.6672 153.706 45.4687 154.299 46.5458C154.917 47.5978 155.226 48.9378 155.226 50.5659V62.814H150.071V51.3549C150.071 50.1275 149.749 49.1757 149.107 48.4995C148.488 47.8232 147.672 47.4851 146.659 47.4851C145.472 47.4851 144.545 47.9108 143.877 48.7625C143.209 49.589 142.876 50.7162 142.876 52.1438V62.814H137.72ZM166.408 62.814C164.825 62.814 163.614 62.6138 162.773 62.2128C161.932 61.8119 161.339 61.236 160.993 60.4846C160.671 59.7332 160.511 58.8191 160.511 57.7419V39.1819L165.666 38.3178V56.8026C165.666 57.6793 165.802 58.2554 166.074 58.5309C166.371 58.8062 166.976 58.9442 167.891 58.9442H169.857V62.814H166.408ZM157.061 47.6353V43.7655H170.08V47.6353H157.061ZM172.515 62.814V57.4789H178.079V62.814L174.926 68.9756H171.811L174.926 62.814H172.515ZM199.636 63.4151C197.163 63.4151 195.148 63.0271 193.59 62.2504C192.033 61.4737 190.883 60.447 190.141 59.1696C189.399 57.8922 188.991 56.5146 188.917 55.0368H194.369C194.443 55.7882 194.691 56.4896 195.111 57.1408C195.531 57.792 196.137 58.318 196.928 58.7187C197.744 59.1197 198.758 59.3199 199.97 59.3199C201.503 59.3199 202.69 58.9941 203.53 58.343C204.396 57.6668 204.829 56.8277 204.829 55.8258C204.829 54.8489 204.507 54.1351 203.864 53.6842C203.246 53.2083 202.455 52.8577 201.491 52.6323L195.964 51.4676C194.703 51.167 193.578 50.7537 192.589 50.2277C191.625 49.6767 190.858 48.9503 190.289 48.0486C189.721 47.1469 189.436 46.0323 189.436 44.7048C189.436 43.0768 189.869 41.6616 190.735 40.4593C191.625 39.257 192.849 38.3303 194.406 37.6791C195.989 37.0028 197.831 36.6647 199.933 36.6647C202.331 36.6647 204.272 37.0529 205.756 37.8294C207.239 38.5808 208.34 39.5701 209.057 40.7974C209.799 41.9997 210.207 43.2646 210.281 44.5921H204.903C204.854 43.9158 204.631 43.2896 204.235 42.7136C203.864 42.1375 203.296 41.6741 202.529 41.3234C201.787 40.9477 200.811 40.7599 199.599 40.7599C198.115 40.7599 196.966 41.0729 196.15 41.6991C195.334 42.3003 194.926 43.0768 194.926 44.0285C194.926 44.8802 195.222 45.5063 195.816 45.9071C196.434 46.3079 197.225 46.6209 198.19 46.8464L203.716 48.0486C204.977 48.3241 206.102 48.75 207.091 49.326C208.105 49.9021 208.896 50.6661 209.465 51.6179C210.058 52.5696 210.355 53.7594 210.355 55.1871C210.355 56.8903 209.91 58.3555 209.02 59.5829C208.13 60.8104 206.881 61.762 205.274 62.4383C203.691 63.0893 201.812 63.4151 199.636 63.4151ZM212.637 52.9328C212.637 50.904 213.045 49.1757 213.861 47.7481C214.677 46.3204 215.802 45.2308 217.236 44.4794C218.695 43.7029 220.327 43.3147 222.132 43.3147C223.937 43.3147 225.519 43.6779 226.88 44.4042C228.264 45.1306 229.34 46.2076 230.106 47.6353C230.897 49.063 231.293 50.8289 231.293 52.9328V54.3981H215.827V51.0543H226.768L226.175 51.5051C226.175 50.0524 225.792 48.9628 225.025 48.2365C224.258 47.4851 223.245 47.1094 221.984 47.1094C220.723 47.1094 219.696 47.4976 218.905 48.274C218.139 49.0505 217.755 50.1401 217.755 51.5427V54.3981C217.755 56.0261 218.176 57.2785 219.016 58.1552C219.857 59.007 220.933 59.4326 222.243 59.4326C223.282 59.4326 224.123 59.2072 224.765 58.7563C225.433 58.3055 225.878 57.7168 226.101 56.9905H230.959C230.638 58.9442 229.71 60.4846 228.178 61.6117C226.645 62.7136 224.666 63.2648 222.243 63.2648C220.29 63.2648 218.584 62.9014 217.125 62.1753C215.691 61.4238 214.578 60.3466 213.787 58.9442C213.02 57.5165 212.637 55.8133 212.637 53.8345V52.9328ZM233.681 52.8953C233.681 50.8414 234.102 49.1006 234.942 47.6729C235.783 46.2452 236.92 45.1682 238.355 44.4418C239.813 43.6904 241.457 43.3147 243.288 43.3147C245.142 43.3147 246.687 43.6528 247.924 44.3291C249.16 45.0054 250.099 45.882 250.743 46.9591C251.385 48.0361 251.756 49.1882 251.855 50.4156H246.7C246.576 49.564 246.218 48.8627 245.624 48.3116C245.055 47.7606 244.227 47.4851 243.139 47.4851C241.902 47.4851 240.889 47.9108 240.098 48.7625C239.306 49.589 238.911 50.8915 238.911 52.6698V53.8721C238.911 55.6254 239.319 56.9404 240.135 57.817C240.951 58.6687 241.977 59.0945 243.213 59.0945C244.276 59.0945 245.117 58.8062 245.735 58.2303C246.353 57.6292 246.724 56.8527 246.848 55.9009H251.929C251.83 57.2785 251.422 58.5309 250.705 59.658C249.988 60.7599 248.987 61.6369 247.701 62.288C246.44 62.939 244.87 63.2648 242.991 63.2648C241.161 63.2648 239.542 62.9014 238.132 62.1753C236.723 61.4491 235.622 60.3842 234.831 58.9817C234.064 57.5791 233.681 55.8759 233.681 53.8721V52.8953ZM272.211 43.7655V62.814H267.315V58.8315H267.723C267.253 60.2093 266.487 61.2988 265.424 62.1001C264.385 62.8768 263.074 63.2648 261.492 63.2648C260.255 63.2648 259.131 63.0271 258.117 62.551C257.128 62.0502 256.337 61.2736 255.743 60.2216C255.15 59.1696 254.853 57.8045 254.853 56.1264V43.7655H260.009V55.2622C260.009 56.5897 260.317 57.5666 260.936 58.1927C261.554 58.7939 262.37 59.0945 263.384 59.0945C264.521 59.0945 265.411 58.7064 266.054 57.9298C266.722 57.1533 267.056 56.0011 267.056 54.4732V43.7655H272.211ZM276.227 62.814V43.7655H281.122V48.6498H280.714C281.06 47.0467 281.666 45.7944 282.532 44.8927C283.397 43.991 284.744 43.5401 286.575 43.5401H287.836V48.0862H286.315C284.559 48.0862 283.298 48.4995 282.532 49.326C281.765 50.1275 281.382 51.3424 281.382 52.9704V62.814H276.227ZM288.772 52.9328C288.772 50.904 289.18 49.1757 289.996 47.7481C290.812 46.3204 291.937 45.2308 293.371 44.4794C294.83 43.7029 296.462 43.3147 298.267 43.3147C300.072 43.3147 301.654 43.6779 303.015 44.4042C304.399 45.1306 305.475 46.2076 306.241 47.6353C307.032 49.063 307.428 50.8289 307.428 52.9328V54.3981H291.962V51.0543H302.903L302.31 51.5051C302.31 50.0524 301.927 48.9628 301.16 48.2365C300.393 47.4851 299.38 47.1094 298.119 47.1094C296.858 47.1094 295.831 47.4976 295.04 48.274C294.274 49.0505 293.891 50.1401 293.891 51.5427V54.3981C293.891 56.0261 294.311 57.2785 295.152 58.1552C295.992 59.007 297.068 59.4326 298.378 59.4326C299.417 59.4326 300.258 59.2072 300.9 58.7563C301.568 58.3055 302.013 57.7168 302.236 56.9905H307.094C306.773 58.9442 305.845 60.4846 304.313 61.6117C302.78 62.7136 300.801 63.2648 298.378 63.2648C296.425 63.2648 294.719 62.9014 293.26 62.1753C291.826 61.4238 290.713 60.3466 289.922 58.9442C289.155 57.5165 288.772 55.8133 288.772 53.8345V52.9328ZM309.573 62.814V57.4789H315.136V62.814L311.984 68.9756H308.868L311.984 62.814H309.573ZM7.71426 103.771C5.68669 103.771 4.12893 103.257 3.04097 102.23C1.97774 101.204 1.44612 99.8759 1.44612 98.248C1.44612 97.0956 1.70575 96.1563 2.225 95.4302C2.76898 94.6787 3.47369 94.0899 4.33911 93.6643C5.20453 93.2135 6.13175 92.8877 7.12083 92.6875L14.7242 91.0719V94.1152L8.75277 95.618C8.1099 95.7683 7.59065 96.0313 7.19501 96.407C6.82411 96.7575 6.63866 97.2459 6.63866 97.8723C6.63866 98.6489 6.89829 99.2501 7.41754 99.6757C7.96154 100.077 8.65384 100.277 9.49456 100.277C10.6072 100.277 11.5097 99.951 12.2021 99.3C12.9191 98.6237 13.2777 97.7596 13.2777 96.7076V90.6962C13.2777 89.7194 13.0057 88.968 12.4617 88.442C11.9425 87.916 11.1636 87.653 10.1251 87.653C9.13601 87.653 8.35713 87.8784 7.78844 88.3293C7.21975 88.7801 6.89829 89.4687 6.82411 90.3957H1.70575C1.82938 88.3169 2.67008 86.7014 4.22784 85.549C5.7856 84.3967 7.83787 83.8208 10.3847 83.8208C13.0304 83.8208 15.0333 84.4471 16.3932 85.6993C17.7532 86.9268 18.4331 88.6422 18.4331 90.8465V103.32H13.6486V98.8115L14.242 99.0745C13.9206 100.552 13.2035 101.704 12.0908 102.531C10.9781 103.358 9.51931 103.771 7.71426 103.771ZM22.2858 103.32V84.2716H27.1817V88.2917H26.7737C27.2929 86.9139 28.0841 85.8244 29.1474 85.023C30.2353 84.2217 31.5459 83.8208 33.0789 83.8208C34.3152 83.8208 35.4403 84.0961 36.454 84.6473C37.4678 85.1733 38.2714 85.9746 38.8649 87.0519C39.4831 88.1038 39.7921 89.4441 39.7921 91.0719V103.32H34.6367V91.8609C34.6367 90.6334 34.3152 89.6818 33.6723 89.0055C33.0542 88.3293 32.2382 87.9911 31.2244 87.9911C30.0376 87.9911 29.1103 88.4167 28.4427 89.2685C27.7751 90.0951 27.4413 91.2222 27.4413 92.6499V103.32H22.2858ZM42.8001 93.1759C42.8001 91.197 43.171 89.5192 43.9128 88.1414C44.6794 86.739 45.6931 85.6741 46.9542 84.9479C48.2152 84.1965 49.5999 83.8208 51.1082 83.8208C52.3692 83.8208 53.4943 84.0585 54.4834 84.5346C55.4724 85.0107 56.276 85.6993 56.8942 86.601C57.5124 87.4775 57.8708 88.5424 57.9701 89.7945L57.0054 88.8928V77.2834H62.1612V103.32H57.228V98.6613L57.9701 97.7596C57.7472 99.6633 56.9807 101.141 55.6702 102.193C54.3844 103.245 52.8143 103.771 50.9598 103.771C49.4268 103.771 48.0421 103.408 46.8058 102.681C45.5942 101.955 44.6175 100.89 43.8757 99.4878C43.1587 98.0854 42.8001 96.3818 42.8001 94.3782V93.1759ZM52.4063 87.9911C51.1205 87.9911 50.0697 88.442 49.2537 89.3437C48.4377 90.2201 48.0298 91.4976 48.0298 93.1759V94.3782C48.0298 96.0812 48.4377 97.3839 49.2537 98.2855C50.0944 99.162 51.1576 99.6005 52.4434 99.6005C53.7539 99.6005 54.8419 99.162 55.7073 98.2855C56.5727 97.3839 57.0054 96.1188 57.0054 94.4909V93.1008C57.0054 91.9989 56.7952 91.0719 56.3749 90.3205C55.9793 89.5691 55.4353 88.9932 54.743 88.5923C54.0506 88.1913 53.2717 87.9911 52.4063 87.9911ZM84.1657 103.921C81.6929 103.921 79.6779 103.533 78.1201 102.756C76.5624 101.98 75.4126 100.953 74.6708 99.6757C73.929 98.3983 73.521 97.0205 73.4468 95.5429H78.899C78.9732 96.2943 79.2207 96.9958 79.6408 97.6468C80.061 98.2979 80.6672 98.8239 81.4582 99.2248C82.2742 99.6258 83.2878 99.826 84.4995 99.826C86.0324 99.826 87.2193 99.5001 88.0602 98.8491C88.9254 98.1728 89.3583 97.3339 89.3583 96.3319C89.3583 95.355 89.0367 94.6412 88.394 94.1903C87.7756 93.7142 86.9846 93.3638 86.0202 93.1383L80.4939 91.9736C79.2328 91.6731 78.108 91.2598 77.1187 90.7338C76.1544 90.1826 75.3877 89.4564 74.8192 88.5547C74.2506 87.653 73.9661 86.5382 73.9661 85.2109C73.9661 83.583 74.399 82.1676 75.2642 80.9654C76.1544 79.7631 77.3783 78.8362 78.9361 78.1851C80.5188 77.5089 82.3605 77.1707 84.4625 77.1707C86.8611 77.1707 88.8019 77.5588 90.2855 78.3354C91.7691 79.0868 92.8696 80.076 93.5865 81.3035C94.3283 82.5058 94.7363 83.7709 94.8104 85.0982H89.4325C89.3832 84.4219 89.1607 83.7955 88.7649 83.2196C88.394 82.6437 87.8254 82.18 87.0587 81.8295C86.3169 81.4538 85.3404 81.266 84.1287 81.266C82.6451 81.266 81.4953 81.5788 80.6793 82.2052C79.8633 82.8064 79.4554 83.583 79.4554 84.5346C79.4554 85.3864 79.7521 86.0122 80.3455 86.4132C80.9639 86.8141 81.7549 87.127 82.7192 87.3524L88.2456 88.5547C89.5066 88.83 90.6315 89.2562 91.6207 89.8321C92.6343 90.408 93.426 91.1723 93.9945 92.1239C94.5879 93.0755 94.8846 94.2655 94.8846 95.6932C94.8846 97.3962 94.4396 98.8614 93.5494 100.089C92.6593 101.316 91.4104 102.268 89.8034 102.944C88.2207 103.595 86.3419 103.921 84.1657 103.921ZM97.1668 93.4013C97.1668 91.3473 97.587 89.6067 98.4278 88.179C99.2687 86.7513 100.406 85.6741 101.84 84.9479C103.299 84.1965 104.943 83.8208 106.773 83.8208C108.627 83.8208 110.173 84.1589 111.409 84.8352C112.645 85.5115 113.585 86.3879 114.228 87.4651C114.871 88.5424 115.242 89.6942 115.341 90.9217H110.185C110.062 90.0699 109.703 89.3689 109.11 88.8177C108.541 88.2665 107.712 87.9911 106.625 87.9911C105.389 87.9911 104.374 88.4167 103.583 89.2685C102.792 90.0951 102.396 91.3978 102.396 93.1759V94.3782C102.396 96.1317 102.804 97.4467 103.62 98.3231C104.436 99.1749 105.463 99.6005 106.699 99.6005C107.762 99.6005 108.603 99.3123 109.221 98.7364C109.839 98.1353 110.21 97.3586 110.334 96.407H115.415C115.316 97.7848 114.908 99.037 114.191 100.164C113.474 101.266 112.473 102.143 111.187 102.794C109.926 103.445 108.356 103.771 106.476 103.771C104.647 103.771 103.027 103.408 101.618 102.681C100.208 101.955 99.1076 100.89 98.3166 99.4878C97.5499 98.0854 97.1668 96.3818 97.1668 94.3782V93.4013ZM124.199 103.771C122.171 103.771 120.613 103.257 119.525 102.23C118.462 101.204 117.931 99.8759 117.931 98.248C117.931 97.0956 118.19 96.1563 118.709 95.4302C119.254 94.6787 119.958 94.0899 120.824 93.6643C121.689 93.2135 122.616 92.8877 123.605 92.6875L131.209 91.0719V94.1152L125.237 95.618C124.595 95.7683 124.075 96.0313 123.679 96.407C123.309 96.7575 123.123 97.2459 123.123 97.8723C123.123 98.6489 123.383 99.2501 123.902 99.6757C124.446 100.077 125.138 100.277 125.979 100.277C127.092 100.277 127.994 99.951 128.687 99.3C129.403 98.6237 129.762 97.7596 129.762 96.7076V90.6962C129.762 89.7194 129.49 88.968 128.946 88.442C128.427 87.916 127.648 87.653 126.61 87.653C125.62 87.653 124.841 87.8784 124.273 88.3293C123.704 88.7801 123.383 89.4687 123.309 90.3957H118.19C118.314 88.3169 119.155 86.7014 120.712 85.549C122.27 84.3967 124.322 83.8208 126.869 83.8208C129.515 83.8208 131.518 84.4471 132.878 85.6993C134.238 86.9268 134.918 88.6422 134.918 90.8465V103.32H130.133V98.8115L130.727 99.0745C130.405 100.552 129.688 101.704 128.575 102.531C127.463 103.358 126.004 103.771 124.199 103.771ZM138.77 103.32V77.2834H143.926V103.32H138.77ZM153.646 103.771C151.618 103.771 150.061 103.257 148.973 102.23C147.909 101.204 147.378 99.8759 147.378 98.248C147.378 97.0956 147.638 96.1563 148.157 95.4302C148.7 94.6787 149.405 94.0899 150.271 93.6643C151.136 93.2135 152.063 92.8877 153.053 92.6875L160.656 91.0719V94.1152L154.685 95.618C154.041 95.7683 153.522 96.0313 153.127 96.407C152.756 96.7575 152.571 97.2459 152.571 97.8723C152.571 98.6489 152.83 99.2501 153.349 99.6757C153.893 100.077 154.586 100.277 155.426 100.277C156.539 100.277 157.441 99.951 158.134 99.3C158.851 98.6237 159.21 97.7596 159.21 96.7076V90.6962C159.21 89.7194 158.937 88.968 158.394 88.442C157.874 87.916 157.095 87.653 156.057 87.653C155.068 87.653 154.289 87.8784 153.72 88.3293C153.151 88.7801 152.83 89.4687 152.756 90.3957H147.638C147.761 88.3169 148.602 86.7014 150.16 85.549C151.717 84.3967 153.77 83.8208 156.317 83.8208C158.962 83.8208 160.965 84.4471 162.325 85.6993C163.685 86.9268 164.365 88.6422 164.365 90.8465V103.32H159.58V98.8115L160.174 99.0745C159.852 100.552 159.135 101.704 158.023 102.531C156.91 103.358 155.451 103.771 153.646 103.771ZM187.578 94.3782C187.578 96.3818 187.195 98.0854 186.429 99.4878C185.687 100.866 184.685 101.93 183.424 102.681C182.188 103.408 180.803 103.771 179.27 103.771C178.034 103.771 176.909 103.533 175.895 103.057C174.906 102.581 174.102 101.892 173.484 100.991C172.866 100.089 172.507 99.0117 172.409 97.7596L173.114 98.6613V103.32H168.218V77.2834H173.373V88.8928L172.409 89.7945C172.656 87.916 173.422 86.4507 174.708 85.3988C175.994 84.3468 177.564 83.8208 179.419 83.8208C180.952 83.8208 182.324 84.1842 183.536 84.9103C184.772 85.6365 185.748 86.7014 186.466 88.1039C187.208 89.4816 187.578 91.1723 187.578 93.1759V94.3782ZM177.935 99.6005C179.245 99.6005 180.309 99.162 181.125 98.2855C181.941 97.3839 182.349 96.0812 182.349 94.3782V93.1759C182.349 91.4976 181.941 90.2201 181.125 89.3437C180.309 88.442 179.233 87.9911 177.898 87.9911C176.612 87.9911 175.536 88.442 174.671 89.3437C173.805 90.2201 173.373 91.4729 173.373 93.1008V94.4909C173.373 95.5681 173.571 96.4945 173.967 97.2711C174.387 98.0226 174.943 98.5984 175.636 98.9994C176.328 99.4003 177.094 99.6005 177.935 99.6005ZM190.602 103.32V77.2834H195.757V103.32H190.602ZM198.801 93.4389C198.801 91.4101 199.209 89.6818 200.025 88.2541C200.841 86.8264 201.966 85.7369 203.4 84.9855C204.859 84.2088 206.491 83.8208 208.296 83.8208C210.101 83.8208 211.683 84.1842 213.043 84.9103C214.428 85.6365 215.503 86.7137 216.27 88.1414C217.061 89.5691 217.457 91.3349 217.457 93.4389V94.9042H201.991V91.5604H212.932L212.339 92.0112C212.339 90.5583 211.956 89.4687 211.189 88.7426C210.422 87.9911 209.409 87.6154 208.148 87.6154C206.886 87.6154 205.86 88.0035 205.069 88.7801C204.302 89.5568 203.919 90.6463 203.919 92.0488V94.9042C203.919 96.5321 204.339 97.7848 205.18 98.6613C206.021 99.5131 207.097 99.9387 208.407 99.9387C209.446 99.9387 210.287 99.7132 210.929 99.2624C211.597 98.8115 212.042 98.2227 212.264 97.4966H217.123C216.802 99.4502 215.874 100.991 214.341 102.118C212.809 103.22 210.83 103.771 208.407 103.771C206.454 103.771 204.747 103.408 203.289 102.681C201.854 101.93 200.742 100.853 199.951 99.4502C199.184 98.0226 198.801 96.3195 198.801 94.3406V93.4389ZM228.711 103.32V77.7719H233.978V103.32H228.711ZM244.871 103.32V82.2052H236.675V77.7719H258.335V82.2052H250.175V103.32H244.871ZM11.9425 144.427C9.46981 144.427 7.45463 144.039 5.89687 143.263C4.33911 142.486 3.18933 141.459 2.44754 140.182C1.70575 138.904 1.29776 137.527 1.22358 136.049H6.67575C6.74993 136.8 6.99721 137.502 7.41754 138.153C7.83787 138.804 8.44371 139.33 9.23493 139.731C10.0509 140.132 11.0647 140.332 12.2763 140.332C13.8093 140.332 14.9962 140.006 15.8369 139.355C16.7023 138.679 17.135 137.84 17.135 136.838C17.135 135.861 16.8136 135.147 16.1707 134.696C15.5525 134.22 14.7613 133.87 13.797 133.644L8.2706 132.48C7.00956 132.179 5.88453 131.766 4.89545 131.24C3.93112 130.689 3.1646 129.962 2.5959 129.061C2.02719 128.159 1.74284 127.044 1.74284 125.717C1.74284 124.089 2.17555 122.674 3.04097 121.471C3.93112 120.269 5.15508 119.342 6.71284 118.691C8.29535 118.015 10.1374 117.677 12.2392 117.677C14.6377 117.677 16.5787 118.065 18.0623 118.841C19.5458 119.593 20.6462 120.582 21.3632 121.81C22.105 123.012 22.513 124.277 22.5872 125.604H17.2092C17.1598 124.928 16.9372 124.302 16.5416 123.726C16.1707 123.15 15.602 122.686 14.8355 122.336C14.0937 121.96 13.117 121.772 11.9054 121.772C10.4218 121.772 9.27202 122.085 8.45605 122.711C7.64008 123.312 7.2321 124.089 7.2321 125.041C7.2321 125.892 7.52881 126.518 8.12225 126.919C8.74042 127.32 9.53165 127.633 10.496 127.859L16.0223 129.061C17.2834 129.336 18.4084 129.762 19.3975 130.338C20.4112 130.914 21.2025 131.678 21.7712 132.63C22.3646 133.582 22.6614 134.772 22.6614 136.199C22.6614 137.902 22.2163 139.368 21.3261 140.595C20.436 141.823 19.1873 142.774 17.5801 143.45C15.9976 144.101 14.1184 144.427 11.9425 144.427ZM30.1732 134.809C30.1732 136.688 30.5811 138.04 31.3971 138.867C32.2378 139.693 33.301 140.107 34.5868 140.107C35.8726 140.107 36.9235 139.693 37.7394 138.867C38.5554 138.04 38.9634 136.738 38.9634 134.959V133.907C38.9634 132.054 38.5431 130.689 37.7023 129.812C36.8864 128.936 35.8479 128.497 34.5868 128.497C33.301 128.497 32.2378 128.936 31.3971 129.812C30.5811 130.664 30.1732 131.979 30.1732 133.757V134.809ZM44.193 134.809C44.193 136.838 43.785 138.566 42.9691 139.994C42.1531 141.396 41.0157 142.461 39.5568 143.187C38.1227 143.914 36.466 144.277 34.5868 144.277C32.6829 144.277 31.0139 143.914 29.5797 143.187C28.1456 142.461 27.0082 141.409 26.1675 140.031C25.3515 138.629 24.9435 136.938 24.9435 134.959V133.907C24.9435 131.879 25.3515 130.15 26.1675 128.723C27.0082 127.295 28.1456 126.205 29.5797 125.454C31.0386 124.703 32.7076 124.327 34.5868 124.327C36.466 124.327 38.1227 124.703 39.5568 125.454C41.0157 126.205 42.1531 127.283 42.9691 128.685C43.785 130.088 44.193 131.778 44.193 133.757V134.809ZM47.2416 143.826V117.79H52.3971V143.826H47.2416ZM73.6149 124.778V143.826H68.7191V139.844H69.1271C68.6571 141.221 67.8909 142.311 66.8275 143.112C65.789 143.889 64.4787 144.277 62.896 144.277C61.6599 144.277 60.5345 144.039 59.5209 143.563C58.5316 143.062 57.7406 142.286 57.1471 141.234C56.5537 140.182 56.257 138.817 56.257 137.139V124.778H61.4124V136.274C61.4124 137.602 61.7213 138.579 62.3397 139.205C62.958 139.806 63.774 140.107 64.7876 140.107C65.9252 140.107 66.8153 139.719 67.458 138.942C68.1256 138.165 68.4595 137.013 68.4595 135.485V124.778H73.6149ZM85.4193 143.826C83.8366 143.826 82.6254 143.626 81.7845 143.225C80.9436 142.824 80.3502 142.248 80.0042 141.497C79.6825 140.745 79.522 139.831 79.522 138.754V120.194L84.6775 119.33V137.815C84.6775 138.691 84.8137 139.268 85.0854 139.543C85.3822 139.818 85.9878 139.956 86.9028 139.956H88.8686V143.826H85.4193ZM76.0727 128.647V124.778H89.0911V128.647H76.0727ZM92.0461 143.826V124.778H97.2016V143.826H92.0461ZM91.8607 122.073V117.226H97.4241V122.073H91.8607ZM105.475 134.809C105.475 136.688 105.883 138.04 106.699 138.867C107.54 139.693 108.603 140.107 109.889 140.107C111.174 140.107 112.226 139.693 113.042 138.867C113.858 138.04 114.266 136.738 114.266 134.959V133.907C114.266 132.054 113.845 130.689 113.005 129.812C112.189 128.936 111.15 128.497 109.889 128.497C108.603 128.497 107.54 128.936 106.699 129.812C105.883 130.664 105.475 131.979 105.475 133.757V134.809ZM119.495 134.809C119.495 136.838 119.087 138.566 118.271 139.994C117.455 141.396 116.318 142.461 114.859 143.187C113.425 143.914 111.768 144.277 109.889 144.277C107.985 144.277 106.316 143.914 104.882 143.187C103.448 142.461 102.31 141.409 101.47 140.031C100.654 138.629 100.246 136.938 100.246 134.959V133.907C100.246 131.879 100.654 130.15 101.47 128.723C102.31 127.295 103.448 126.205 104.882 125.454C106.341 124.703 108.01 124.327 109.889 124.327C111.768 124.327 113.425 124.703 114.859 125.454C116.318 126.205 117.455 127.283 118.271 128.685C119.087 130.088 119.495 131.778 119.495 133.757V134.809ZM122.544 143.826V124.778H127.439V128.798H127.031C127.551 127.42 128.342 126.33 129.405 125.529C130.493 124.728 131.804 124.327 133.337 124.327C134.573 124.327 135.698 124.602 136.712 125.153C137.725 125.679 138.529 126.481 139.123 127.558C139.741 128.61 140.05 129.95 140.05 131.578V143.826H134.894V132.367C134.894 131.139 134.573 130.188 133.93 129.512C133.312 128.835 132.496 128.497 131.482 128.497C130.295 128.497 129.368 128.923 128.7 129.775C128.033 130.601 127.699 131.728 127.699 133.156V143.826H122.544ZM151.257 144.277C149.329 144.277 147.759 143.976 146.547 143.375C145.36 142.749 144.482 141.948 143.914 140.971C143.369 139.994 143.061 138.967 142.986 137.89H148.031C148.105 138.667 148.414 139.33 148.958 139.881C149.526 140.432 150.392 140.708 151.554 140.708C152.469 140.708 153.186 140.508 153.705 140.107C154.249 139.706 154.521 139.193 154.521 138.566C154.521 137.915 154.311 137.451 153.891 137.176C153.471 136.876 152.951 136.662 152.333 136.537L148.29 135.711C146.906 135.435 145.731 134.91 144.767 134.133C143.827 133.332 143.357 132.154 143.357 130.601C143.357 129.324 143.703 128.222 144.396 127.295C145.088 126.343 146.053 125.617 147.289 125.116C148.525 124.59 149.959 124.327 151.591 124.327C153.495 124.327 155.016 124.627 156.153 125.229C157.315 125.83 158.168 126.593 158.712 127.52C159.257 128.447 159.553 129.411 159.602 130.413H154.632C154.583 129.712 154.286 129.124 153.742 128.647C153.223 128.147 152.419 127.896 151.331 127.896C150.441 127.896 149.737 128.096 149.217 128.497C148.698 128.873 148.439 129.349 148.439 129.925C148.439 130.526 148.649 130.952 149.069 131.202C149.514 131.453 150.033 131.641 150.627 131.766L154.707 132.592C156.116 132.868 157.291 133.431 158.23 134.283C159.17 135.11 159.64 136.312 159.64 137.89C159.64 139.217 159.281 140.357 158.564 141.309C157.871 142.26 156.895 143 155.634 143.526C154.398 144.026 152.939 144.277 151.257 144.277Z" fill="black"/>
</svg>
