<svg width="162" height="30" viewBox="0 0 162 30" fill="none" xmlns="http://www.w3.org/2000/svg">
<path d="M162 11.4478L158.007 13.1783C156.622 11.155 154.057 11.0041 152.948 11.1816C150.286 11.8472 150.286 14.3763 152.948 15.175L157.208 16.3731C161.467 17.9704 162.089 21.5201 161.867 23.1619C160.695 28.167 155.433 28.8858 152.948 28.6196C148.05 27.9806 145.76 24.9811 145.228 23.5612L149.221 21.8307C150.179 23.5346 152.105 24.3155 152.948 24.493C155.93 25.0255 157.03 23.8275 157.208 23.1619C157.74 20.7658 155.744 20.5904 152.948 19.7009C145.92 17.4646 145.76 13.2671 146.559 11.4478C150.02 4.25967 159.87 7.05506 162 11.4478Z" fill="black"/>
<path d="M137.374 1.06491H132.848V7.58751H129.387V11.4478H132.848L132.981 23.5612C133.114 28.4864 140.303 29.9507 143.764 27.1553L142.033 23.6943C138.519 25.3982 137.463 23.3394 137.374 22.097V11.4478H142.965V7.58751H137.374V1.06491Z" fill="black"/>
<path d="M83.5956 0.133118L69.6187 0.266232C73.9848 1.43764 76.7181 4.43714 77.7386 5.5908L83.5956 0.133118Z" fill="#E11E24"/>
<path d="M83.7288 0.266232L78.4042 6.25637C81.0665 8.25308 82.797 13.3114 83.7288 15.3081V0.266232Z" fill="#E11E24"/>
<path d="M48.5868 18.3698L40.8662 28.8858H46.457L51.116 22.097L55.775 28.8858H61.3658L53.7783 18.3698L60.8333 8.3862H55.3757L51.116 14.6426L46.9895 8.3862H41.5318L48.5868 18.3698Z" fill="black"/>
<path d="M4.39277 8.38622H0V28.8858H4.52588V17.7042C4.52588 10.3829 13.977 9.85047 13.977 17.7042V28.8858H18.3698V15.4413C17.7042 8.38622 13.3114 7.85376 10.2498 7.85376C6.94856 7.85376 4.9696 10.1611 4.39277 11.3147V8.38622Z" fill="black"/>
<path d="M40.2823 19.8472H24.708C25.7729 27.9671 35.0909 25.7042 35.7565 22.3763L39.7499 24.1068C37.1941 28.6859 32.3842 29.6532 30.2988 29.5645C23.0574 29.458 20.3357 23.5744 20.049 19.8472C19.3834 11.1947 25.6398 8 30.2988 8C38.4986 8 40.3711 15.8981 40.2823 19.8472Z" fill="black"/>
<path d="M25.2344 16.4976C25.2344 10.9068 35.4842 10.1081 35.4842 16.4976H25.2344Z" fill="white"/>
<path d="M82.5307 17.7042C82.5307 23.9531 77.7629 29.0189 71.8816 29.0189C66.0002 29.0189 61.2324 23.9531 61.2324 17.7042C61.2324 11.4552 66.0002 6.38947 71.8816 6.38947C77.7629 6.38947 82.5307 11.4552 82.5307 17.7042ZM65.8067 17.7042C65.8067 21.2689 68.5265 24.1587 71.8816 24.1587C75.2366 24.1587 77.9564 21.2689 77.9564 17.7042C77.9564 14.1394 75.2366 11.2496 71.8816 11.2496C68.5265 11.2496 65.8067 14.1394 65.8067 17.7042Z" fill="black"/>
<path d="M128.589 17.9704C128.589 24.0723 123.94 29.0189 118.206 29.0189C112.471 29.0189 107.823 24.0723 107.823 17.9704C107.823 11.8685 112.471 6.92194 118.206 6.92194C123.94 6.92194 128.589 11.8685 128.589 17.9704ZM112.283 17.9704C112.283 21.4513 114.934 24.2731 118.206 24.2731C121.477 24.2731 124.129 21.4513 124.129 17.9704C124.129 14.4895 121.477 11.6677 118.206 11.6677C114.934 11.6677 112.283 14.4895 112.283 17.9704Z" fill="black"/>
<path d="M90.1182 0V11.4482C91.1831 7.98727 99.5694 5.4581 103.829 11.4482C105.471 13.7558 107.769 19.8346 103.829 25.6914C101.68 28.886 94.5108 31.8143 90.1182 25.6914H89.9854V28.7529H85.459V0H90.1182ZM96.7236 12.2783C93.5625 12.2785 91 15.2588 91 18.9346C91.0002 22.6101 93.5627 25.5897 96.7236 25.5898C99.8847 25.5898 102.448 22.6102 102.448 18.9346C102.448 15.2587 99.8849 12.2783 96.7236 12.2783Z" fill="black"/>
</svg>
