<svg width="44" height="44" viewBox="0 0 44 44" fill="none" xmlns="http://www.w3.org/2000/svg">
<path d="M40.8816 20.9506C40.8816 31.9651 31.9651 40.8816 20.9506 40.8816C9.93611 40.8816 1.01962 31.9651 1.01962 20.9506C1.01962 9.93611 9.93611 1.01962 20.9506 1.01962" stroke="#E11E24" stroke-width="2" stroke-linecap="round" stroke-linejoin="round"/>
<path d="M42.9804 42.9802L38.7844 38.7842" stroke="#E11E24" stroke-width="2" stroke-linecap="round" stroke-linejoin="round"/>
<path d="M27.2449 9.68487C26.5106 7.37707 27.3708 4.50282 29.8045 3.72656C31.0843 3.30696 32.6578 3.66362 33.5599 4.90144C34.3991 3.62166 36.0356 3.32794 37.2944 3.72656C39.728 4.50282 40.5882 7.37707 39.8539 9.68487C38.7 13.3564 34.6719 15.2655 33.5599 15.2655C32.427 15.2655 28.4408 13.3983 27.2449 9.68487Z" stroke="#E11E24" stroke-width="2" stroke-linecap="round" stroke-linejoin="round"/>
</svg>
