<svg width="34" height="44" viewBox="0 0 34 44" fill="none" xmlns="http://www.w3.org/2000/svg">
<path d="M1.0072 19.6451V29.9145C1.0072 33.6751 1.0072 33.6751 4.56121 36.072L14.3347 41.713C15.8018 42.5601 18.1987 42.5601 19.6657 41.713L29.4392 36.072C32.9932 33.6751 32.9932 33.6751 32.9932 29.9145V19.6451C32.9932 15.8845 32.9932 15.8845 29.4392 13.4876L19.6657 7.84662C18.1987 6.99945 15.8018 6.99945 14.3347 7.84662L4.56121 13.4876C1.0072 15.8845 1.0072 15.8845 1.0072 19.6451Z" stroke="#E11E24" stroke-width="2" stroke-linecap="round" stroke-linejoin="round"/>
<path d="M28.3651 12.6404V7.20605C28.3651 3.07348 26.2988 1.0072 22.1663 1.0072H11.8349C7.70229 1.0072 5.63601 3.07348 5.63601 7.20605V12.4957" stroke="#E11E24" stroke-width="2" stroke-linecap="round" stroke-linejoin="round"/>
<path d="M18.3029 19.5835L19.4807 21.4225C19.6667 21.7117 20.0799 22.001 20.3899 22.0837L22.4975 22.6209C23.7992 22.9515 24.1505 24.0673 23.3033 25.1004L21.9189 26.7741C21.7123 27.0427 21.547 27.518 21.5677 27.8486L21.6916 30.0182C21.7743 31.3613 20.8238 32.0431 19.584 31.5472L17.5591 30.7414C17.2491 30.6174 16.7326 30.6174 16.4226 30.7414L14.3977 31.5472C13.1579 32.0431 12.2074 31.3406 12.2901 30.0182L12.414 27.8486C12.4347 27.518 12.2694 27.0221 12.0628 26.7741L10.6784 25.1004C9.83118 24.0673 10.1824 22.9515 11.4842 22.6209L13.5918 22.0837C13.9224 22.001 14.3357 21.6911 14.501 21.4225L15.6788 19.5835C16.4226 18.4677 17.5797 18.4677 18.3029 19.5835Z" stroke="#E11E24" stroke-width="2" stroke-linecap="round" stroke-linejoin="round"/>
</svg>
