<svg width="105" height="47" viewBox="0 0 105 47" fill="none" xmlns="http://www.w3.org/2000/svg">
<circle cx="81.7732" cy="23.2268" r="23.2268" fill="#EDEDED"/>
<path d="M87.5845 24.5058C87.978 24.1122 87.978 23.4742 87.5845 23.0806L81.1714 16.6675C80.7778 16.274 80.1398 16.274 79.7462 16.6675C79.3527 17.061 79.3527 17.6991 79.7462 18.0926L85.4468 23.7932L79.7462 29.4937C79.3527 29.8873 79.3527 30.5253 79.7462 30.9189C80.1398 31.3124 80.7778 31.3124 81.1714 30.9189L87.5845 24.5058ZM86.8718 23.7932V24.8009H86.8719V23.7932V22.7855H86.8718V23.7932Z" fill="#E11E24"/>
<circle cx="23.2268" cy="23.2268" r="23.2268" transform="rotate(-180 23.2268 23.2268)" fill="#EDEDED"/>
<path d="M17.4155 21.9479C17.022 22.3415 17.022 22.9795 17.4155 23.373L23.8286 29.7862C24.2222 30.1797 24.8602 30.1797 25.2538 29.7862C25.6473 29.3926 25.6473 28.7546 25.2538 28.361L19.5532 22.6605L25.2538 16.9599C25.6473 16.5664 25.6473 15.9283 25.2538 15.5348C24.8602 15.1413 24.2222 15.1413 23.8286 15.5348L17.4155 21.9479ZM18.1282 22.6605L18.1282 21.6528L18.1281 21.6528L18.1281 22.6605L18.1281 23.6682L18.1282 23.6682L18.1282 22.6605Z" fill="#E11E24"/>
</svg>
