<svg width="51" height="199" viewBox="0 0 51 199" fill="none" xmlns="http://www.w3.org/2000/svg">
<path d="M25.5 50.2123C39.3071 50.2123 50.4999 39.0839 50.4999 25.3562C50.4999 11.6286 39.3071 0.500115 25.5 0.500115C11.6929 0.500115 0.500115 11.6286 0.500115 25.3562C0.500115 39.0839 11.6929 50.2123 25.5 50.2123Z" stroke="#B7B7B7"/>
<path d="M24.2001 32.705L24.1796 26.4443H21.501V23.7612H24.1796V21.9724C24.1796 19.5583 25.672 18.3949 27.8219 18.3949C28.8517 18.3949 29.7368 18.4717 29.9947 18.506V21.0289L28.5036 21.0296C27.3344 21.0296 27.108 21.5861 27.108 22.4028V23.7612H30.4296L29.5367 26.4443H27.108V32.705H24.2001Z" fill="#1E2532"/>
<path d="M25.5 123.93C39.3071 123.93 50.4999 112.801 50.4999 99.0738C50.4999 85.3462 39.3071 74.2177 25.5 74.2177C11.6929 74.2177 0.500115 85.3462 0.500115 99.0738C0.500115 112.801 11.6929 123.93 25.5 123.93Z" stroke="#B7B7B7"/>
<g clip-path="url(#clip0_35_2319)">
<path d="M29.2502 91.6202H21.7502C19.6792 91.6202 18.0002 93.2894 18.0002 95.3486V102.805C18.0002 104.865 19.6792 106.534 21.7502 106.534H29.2502C31.3212 106.534 33.0002 104.865 33.0002 102.805V95.3486C33.0002 93.2894 31.3212 91.6202 29.2502 91.6202Z" stroke="#1E2532" stroke-width="2" stroke-linecap="round" stroke-linejoin="round"/>
<path d="M28.5001 98.6078C28.5926 99.2284 28.486 99.8622 28.1954 100.419C27.9047 100.976 27.4449 101.428 26.8813 101.71C26.3176 101.992 25.6789 102.09 25.0559 101.99C24.4329 101.891 23.8574 101.598 23.4112 101.154C22.965 100.711 22.6709 100.139 22.5706 99.5192C22.4704 98.8998 22.5691 98.2647 22.8528 97.7043C23.1365 97.1439 23.5907 96.6867 24.1508 96.3978C24.7109 96.1088 25.3484 96.0028 25.9726 96.0949C26.6093 96.1887 27.1987 96.4837 27.6538 96.9362C28.109 97.3887 28.4056 97.9748 28.5001 98.6078Z" stroke="#1E2532" stroke-width="2" stroke-linecap="round" stroke-linejoin="round"/>
<ellipse cx="29.624" cy="94.9736" rx="1.12526" ry="1.11853" fill="white"/>
</g>
<path d="M25.5 197.648C39.3071 197.648 50.4999 186.519 50.4999 172.791C50.4999 159.064 39.3071 147.935 25.5 147.935C11.6929 147.935 0.500115 159.064 0.500115 172.791C0.500115 186.519 11.6929 197.648 25.5 197.648Z" stroke="#B7B7B7"/>
<path d="M32.786 168.168C32.2503 168.436 31.7146 168.526 31.0896 168.615C31.7146 168.257 32.161 167.721 32.3396 167.005C31.8039 167.363 31.1789 167.542 30.4646 167.721C29.9289 167.184 29.1253 166.826 28.3217 166.826C26.8039 166.826 25.4646 168.168 25.4646 169.778C25.4646 170.046 25.4646 170.225 25.5539 170.404C23.1432 170.315 20.911 169.152 19.4825 167.363C19.2146 167.81 19.1253 168.257 19.1253 168.884C19.1253 169.867 19.6611 170.762 20.4646 171.298C20.0182 171.298 19.5718 171.119 19.1253 170.941C19.1253 172.372 20.1075 173.534 21.4468 173.803C21.1789 173.892 20.911 173.892 20.6432 173.892C20.4646 173.892 20.2861 173.892 20.1075 173.803C20.4646 174.965 21.536 175.86 22.8753 175.86C21.8932 176.665 20.6432 177.112 19.2146 177.112C18.9468 177.112 18.7682 177.112 18.5003 177.112C19.8396 177.917 21.3575 178.453 22.9646 178.453C28.3217 178.453 31.2681 173.982 31.2681 170.136C31.2681 170.046 31.2681 169.867 31.2681 169.778C31.8931 169.331 32.4289 168.794 32.786 168.168Z" fill="#1E2532"/>
<defs>
<clipPath id="clip0_35_2319">
<rect width="17.9958" height="17.8923" fill="white" transform="translate(16.4999 90.1276)"/>
</clipPath>
</defs>
</svg>
